<?xml version="1.0" standalone="no"?>
<!DOCTYPE svg PUBLIC "-//W3C//DTD SVG 20010904//EN"
 "http://www.w3.org/TR/2001/REC-SVG-20010904/DTD/svg10.dtd">
<svg version="1.0" xmlns="http://www.w3.org/2000/svg"
 width="7500.000000pt" height="5000.000000pt" viewBox="0 0 7500.000000 5000.000000"
 preserveAspectRatio="xMidYMid meet">
<metadata>
Created by potrace 1.16, written by Peter Selinger 2001-2019
</metadata>
<g transform="translate(0.000000,5000.000000) scale(0.100000,-0.100000)"
fill="#000000" stroke="none">
<path d="M18319 32967 c-36 -12 -91 -38 -123 -57 -117 -70 -251 -242 -316
-402 l-24 -58 -92 0 c-51 0 -117 -5 -146 -11 l-52 -12 80 -29 c44 -16 95 -41
114 -56 l33 -28 -48 -65 c-106 -144 -161 -309 -209 -634 -35 -233 -65 -635
-48 -635 20 0 452 50 657 76 249 31 764 105 990 142 l170 28 210 134 c337 215
828 537 1130 743 353 240 763 526 769 536 3 4 0 8 -7 8 -7 0 -111 25 -233 56
-592 150 -1150 247 -1589 278 -182 12 -564 7 -675 -10 -36 -5 -87 -12 -115
-16 -157 -20 -443 -122 -546 -195 -16 -12 -32 -20 -35 -17 -10 9 34 83 78 130
24 26 70 63 102 82 60 35 60 35 25 35 -19 0 -64 -11 -100 -23z"/>
<path d="M21443 32576 c-302 -220 -1288 -884 -1737 -1170 -126 -80 -221 -146
-211 -146 24 0 566 99 845 154 657 130 1403 302 1990 459 310 83 650 180 650
186 0 10 -182 107 -313 167 -286 131 -610 242 -1074 367 l-91 25 -59 -42z"/>
<path d="M22975 31974 c-174 -53 -747 -207 -1050 -283 -764 -191 -1562 -359
-2354 -496 l-273 -48 -202 -124 c-449 -279 -1221 -732 -1521 -893 -44 -24 -82
-45 -84 -46 -5 -5 19 -266 40 -429 54 -414 124 -660 246 -871 61 -104 166
-318 203 -414 18 -47 37 -89 41 -94 5 -5 44 11 91 39 261 150 476 360 539 524
18 47 23 87 30 251 10 259 39 400 110 542 52 103 129 167 199 168 49 0 131
-49 204 -123 60 -59 83 -94 134 -193 34 -67 69 -124 78 -128 30 -11 110 -6
160 11 72 24 161 119 359 383 451 601 754 772 1186 669 257 -60 475 -160 973
-442 382 -216 579 -309 742 -352 76 -20 191 -19 251 1 166 56 406 298 557 559
182 316 235 695 140 997 -91 287 -299 547 -613 766 -41 29 -81 52 -90 51 -9 0
-52 -11 -96 -25z"/>
<path d="M18885 31084 c-290 -46 -753 -108 -1105 -147 l-295 -33 -7 -40 c-15
-87 -3 -704 15 -704 25 0 783 436 1238 712 365 222 406 248 384 247 -11 -1
-114 -16 -230 -35z"/>
<path d="M42100 27105 c0 -13 446 -15 3950 -15 3504 0 3950 2 3950 15 0 13
-446 15 -3950 15 -3504 0 -3950 -2 -3950 -15z"/>
<path d="M34730 23810 l0 -3150 2585 0 2585 0 1 208 c0 205 0 344 -1 1205 l0
447 -890 0 -890 0 0 930 0 930 1080 0 1080 0 0 1290 0 1290 -2775 0 -2775 0 0
-3150z m1653 2420 c232 -72 388 -320 348 -557 -37 -217 -212 -390 -427 -423
-81 -13 -172 -2 -259 31 -120 45 -242 170 -287 296 -30 81 -36 221 -13 299 50
173 188 313 355 360 72 20 208 17 283 -6z m567 -2960 l0 -1270 -705 0 -705 0
0 1270 0 1270 705 0 705 0 0 -1270z"/>
<path d="M44370 26495 c0 -13 158 -15 1360 -15 1202 0 1360 2 1360 15 0 13
-158 15 -1360 15 -1202 0 -1360 -2 -1360 -15z"/>
<path d="M56215 24661 c-88 -40 -138 -136 -116 -221 34 -126 162 -185 279
-129 110 54 139 212 54 303 -58 62 -144 81 -217 47z"/>
<path d="M52940 20890 c0 -20 7 -20 2255 -20 2248 0 2255 0 2255 20 0 20 -7
20 -2255 20 -2248 0 -2255 0 -2255 -20z"/>
<path d="M50900 20245 l0 -25 820 0 820 0 0 25 0 25 -820 0 -820 0 0 -25z"/>
<path d="M50900 19675 l0 -25 1445 0 1445 0 0 25 0 25 -1445 0 -1445 0 0 -25z"/>
<path d="M29265 19644 c-22 -2 -89 -9 -150 -14 -781 -74 -2184 -440 -3887
-1012 l-158 -53 -63 -80 c-196 -247 -443 -394 -715 -426 -108 -13 -290 -1
-449 30 l-93 18 -512 -187 c-769 -281 -1871 -698 -2555 -967 l-123 -48 -4
-760 c-4 -738 -9 -937 -41 -1460 -57 -928 -173 -1868 -330 -2691 l-27 -140
-957 -329 c-526 -180 -961 -330 -967 -332 -7 -2 -74 181 -169 456 -104 305
-162 458 -169 454 -6 -4 -177 -131 -381 -283 -427 -319 -566 -420 -870 -627
-219 -150 -608 -401 -781 -504 l-91 -54 -7 -95 c-3 -52 -6 -377 -6 -722 l0
-628 38 -24 c129 -81 336 -164 492 -197 129 -27 318 -29 465 -6 466 74 852 30
1205 -135 127 -60 524 -277 630 -345 141 -91 203 -161 180 -204 -11 -19 -39
-19 -1625 -19 l-1614 0 -74 39 c-41 21 -113 64 -161 95 l-87 56 -92 -34 c-125
-47 -209 -60 -337 -53 -118 7 -294 47 -404 93 l-68 29 -34 118 c-18 65 -57
188 -85 275 -57 173 -297 864 -303 869 -1 2 -59 -10 -127 -27 -197 -47 -293
-61 -459 -67 -284 -10 -481 50 -639 193 -49 43 -48 46 -21 -120 126 -749 291
-1213 504 -1414 31 -29 56 -55 56 -58 0 -2 -2134 -4 -4743 -4 -4276 0 -4745
-2 -4765 -16 -18 -12 -22 -25 -22 -69 0 -57 14 -81 53 -90 12 -3 15242 -4
33845 -3 33469 3 33824 3 33838 22 22 31 18 119 -6 141 -19 17 -530 18 -13696
21 -7522 2 -13679 5 -13682 8 -3 4 4 16 16 29 11 12 278 454 593 982 314 528
815 1367 1111 1865 297 498 546 917 554 932 22 43 18 136 -9 183 -48 85 -118
109 -317 109 -158 0 -223 -12 -352 -65 -139 -57 -277 -174 -398 -334 -79 -107
-237 -280 -381 -419 -386 -374 -810 -643 -1190 -756 -287 -85 -524 -91 -824
-19 -44 10 -98 19 -121 19 -146 0 -3526 590 -6739 1175 -1440 263 -1337 243
-1347 253 -4 4 -193 354 -419 777 -820 1537 -1226 2281 -1637 3005 -1024 1804
-1797 2923 -2327 3368 -176 148 -320 226 -479 258 -69 14 -406 26 -491 18z
m-51 -4724 c63 -14 80 -41 121 -190 118 -422 363 -926 738 -1518 60 -95 108
-175 106 -177 -2 -2 -60 7 -129 20 -69 13 -521 99 -1005 190 -484 91 -963 183
-1065 205 -450 96 -897 170 -1443 240 -171 22 -312 42 -315 44 -2 3 29 20 70
39 40 19 233 110 428 202 1266 597 1952 876 2305 939 96 17 137 18 189 6z
m-803 -5499 c116 -61 402 -191 569 -259 679 -274 1535 -502 2525 -673 428 -74
505 -85 848 -129 260 -32 423 -50 872 -92 17 -2 -471 -7 -1084 -11 -1494 -10
-10593 -7 -10511 4 36 4 157 15 270 24 857 67 2104 255 3425 515 876 173 1962
414 2700 600 149 37 275 68 281 69 6 1 53 -21 105 -48z m14063 -575 c189 -120
444 -266 646 -367 196 -98 259 -126 410 -180 l105 -38 -3105 1 -3105 0 2265
150 2265 149 53 36 c78 53 178 149 256 247 38 47 72 86 74 86 2 0 63 -38 136
-84z"/>
<path d="M35885 19446 c-117 -29 -215 -110 -267 -222 -24 -52 -32 -83 -36
-153 -8 -148 22 -235 114 -331 63 -67 136 -105 225 -119 89 -15 3499 -15 3588
0 132 21 243 104 304 228 31 63 32 70 32 186 0 114 -2 123 -32 187 -55 117
-159 201 -281 227 -80 17 -3578 14 -3647 -3z"/>
<path d="M50957 16656 c-76 -27 -144 -97 -172 -175 -20 -57 -19 -184 1 -243
19 -58 73 -120 132 -156 l47 -27 1395 -3 1395 -2 62 30 c112 55 157 135 157
280 0 144 -44 224 -156 279 l-61 31 -1381 0 c-1128 -1 -1388 -3 -1419 -14z"/>
</g>
</svg>
